<mxfile host="app.diagrams.net" modified="2021-02-03T14:27:00.785Z" agent="5.0 (Macintosh; Intel Mac OS X 10_15_6) AppleWebKit/605.1.15 (KHTML, like Gecko) Version/14.0.3 Safari/605.1.15" etag="Dn2YqzkjqOjdyheI4U2o" version="14.2.9" type="github">
  <diagram id="NUff_Qna1JFXA9w47eQv" name="Page-1">
    <mxGraphModel dx="967" dy="520" grid="1" gridSize="10" guides="1" tooltips="1" connect="1" arrows="1" fold="1" page="1" pageScale="1" pageWidth="827" pageHeight="1169" math="0" shadow="0">
      <root>
        <mxCell id="0" />
        <mxCell id="1" parent="0" />
        <mxCell id="k82UXg3qL8UHCOIBaSCx-1" value="Authors&lt;br&gt;&lt;br&gt;Class - name: str, books_writted: int, id: int" style="whiteSpace=wrap;html=1;aspect=fixed;" vertex="1" parent="1">
          <mxGeometry x="124" y="150" width="290" height="290" as="geometry" />
        </mxCell>
        <mxCell id="k82UXg3qL8UHCOIBaSCx-2" value="Book&lt;br&gt;&lt;br&gt;Class - title:str, author: Author, &amp;nbsp;id: int, year: int" style="whiteSpace=wrap;html=1;aspect=fixed;" vertex="1" parent="1">
          <mxGeometry x="460" y="150" width="290" height="290" as="geometry" />
        </mxCell>
      </root>
    </mxGraphModel>
  </diagram>
</mxfile>
